<?xml version="1.0" encoding="UTF-8" standalone="no"?>
<!DOCTYPE svg PUBLIC "-//W3C//DTD SVG 1.1//EN" "http://www.w3.org/Graphics/SVG/1.1/DTD/svg11.dtd">
<svg width="100%" height="100%" viewBox="0 0 113 122" version="1.1" xmlns="http://www.w3.org/2000/svg" xmlns:xlink="http://www.w3.org/1999/xlink" xml:space="preserve" xmlns:serif="http://www.serif.com/" style="fill-rule:evenodd;clip-rule:evenodd;stroke-linejoin:round;stroke-miterlimit:2;">
    <g transform="matrix(1.5,0,0,1.5,0,0)">
        <g transform="matrix(1,0,0,1,-12.5,-9.375)">
            <path d="M84.375,37.5L84.375,25C84.371,20.859 82.723,16.887 79.793,13.957C76.863,11.027 72.891,9.379 68.75,9.375L31.25,9.375C27.109,9.379 23.137,11.027 20.207,13.957C17.277,16.887 15.629,20.859 15.625,25L15.625,37.5C13.898,37.5 12.5,38.898 12.5,40.625L12.5,75C12.504,79.141 14.152,83.113 17.082,86.043C20.012,88.973 23.984,90.621 28.125,90.625L71.875,90.625C76.016,90.621 79.988,88.973 82.918,86.043C85.848,83.113 87.496,79.141 87.5,75L87.5,40.625C87.5,39.797 87.172,39 86.586,38.414C86,37.828 85.203,37.5 84.375,37.5L84.375,37.5ZM21.875,25C21.875,19.824 26.074,15.625 31.25,15.625L68.75,15.625C73.926,15.625 78.125,19.824 78.125,25L78.125,37.5L59.375,37.5C57.648,37.5 56.25,38.898 56.25,40.625L56.25,46.875C56.25,50.328 53.453,53.125 50,53.125C46.547,53.125 43.75,50.328 43.75,46.875L43.75,40.625C43.75,39.797 43.422,39 42.836,38.414C42.25,37.828 41.453,37.5 40.625,37.5L21.875,37.5L21.875,25ZM65.625,68.75C65.625,73.926 61.426,78.125 56.25,78.125L43.75,78.125C38.574,78.125 34.375,73.926 34.375,68.75L34.375,65.625C34.375,63.898 35.773,62.5 37.5,62.5C39.227,62.5 40.625,63.898 40.625,65.625L40.625,68.75C40.625,69.578 40.953,70.375 41.539,70.961C42.125,71.547 42.922,71.875 43.75,71.875L56.25,71.875C57.078,71.875 57.875,71.547 58.461,70.961C59.047,70.375 59.375,69.578 59.375,68.75L59.375,65.625C59.375,63.898 60.773,62.5 62.5,62.5C64.227,62.5 65.625,63.898 65.625,65.625L65.625,68.75Z" style="fill-rule:nonzero;"/>
            <path d="M65.625,28.125C65.625,27.297 65.297,26.5 64.711,25.914C64.125,25.328 63.328,25 62.5,25L37.5,25C35.773,25 34.375,26.398 34.375,28.125C34.375,29.852 35.773,31.25 37.5,31.25L62.5,31.25C63.328,31.25 64.125,30.922 64.711,30.336C65.297,29.75 65.625,28.953 65.625,28.125L65.625,28.125Z" style="fill-rule:nonzero;"/>
        </g>
    </g>
</svg>
