<?xml version="1.0" encoding="UTF-8" standalone="no"?>
<!DOCTYPE svg PUBLIC "-//W3C//DTD SVG 1.1//EN" "http://www.w3.org/Graphics/SVG/1.1/DTD/svg11.dtd">
<svg width="100%" height="100%" viewBox="0 0 55 96" version="1.1" xmlns="http://www.w3.org/2000/svg" xmlns:xlink="http://www.w3.org/1999/xlink" xml:space="preserve" xmlns:serif="http://www.serif.com/" style="fill-rule:evenodd;clip-rule:evenodd;stroke-linejoin:round;stroke-miterlimit:2;">
    <g transform="matrix(1,0,0,1,-22.4988,-2.5)">
        <path d="M73.398,97.102L52.8,80.602C51.198,79.301 48.8,79.301 47.198,80.602L26.6,97.102C24.999,98.403 22.499,97.204 22.499,95.102L22.499,7C22.499,4.5 24.499,2.5 26.999,2.5L72.999,2.5C75.499,2.5 77.499,4.5 77.499,7L77.499,95.102C77.499,97.2 75.1,98.399 73.397,97.102L73.398,97.102Z" style="fill-rule:nonzero;"/>
    </g>
    <g transform="matrix(0.672594,0,0,0.690842,-6.12888,9.1225)">
        <path d="M73.398,97.102L52.8,80.602C51.198,79.301 48.8,79.301 47.198,80.602L26.6,97.102C24.999,98.403 22.499,97.204 22.499,95.102L22.499,7C22.499,4.5 24.499,2.5 26.999,2.5L72.999,2.5C75.499,2.5 77.499,4.5 77.499,7L77.499,95.102C77.499,97.2 75.1,98.399 73.397,97.102L73.398,97.102Z" style="fill:white;fill-rule:nonzero;"/>
    </g>
</svg>
