<?xml version="1.0" encoding="UTF-8" standalone="no"?>
<!DOCTYPE svg PUBLIC "-//W3C//DTD SVG 1.1//EN" "http://www.w3.org/Graphics/SVG/1.1/DTD/svg11.dtd">
<svg width="100%" height="100%" viewBox="0 0 79 90" version="1.1" xmlns="http://www.w3.org/2000/svg" xmlns:xlink="http://www.w3.org/1999/xlink" xml:space="preserve" xmlns:serif="http://www.serif.com/" style="fill-rule:evenodd;clip-rule:evenodd;stroke-linejoin:round;stroke-miterlimit:2;">
    <g transform="matrix(1,0,0,1,-10.8712,-5.668)">
        <path d="M84.258,31.875L68.531,31.875L68.531,10.91L16.113,10.91L16.113,89.535L84.254,89.535L84.254,58.086L89.496,58.086L89.496,94.777L10.871,94.777L10.871,5.668L73.769,5.668L73.769,10.91L79.011,10.91L79.011,16.152L73.769,16.152L73.769,26.636L84.253,26.636L84.253,21.394L89.495,21.394L89.495,42.359L84.253,42.359L84.253,31.875L84.258,31.875ZM21.356,16.148L63.29,16.148L63.29,31.875L58.048,31.875L58.048,21.391L26.599,21.391L26.599,79.051L73.775,79.051L73.775,63.324L79.017,63.324L79.017,84.289L21.357,84.289L21.356,16.148ZM31.84,58.082L31.84,73.809L47.567,73.809L47.567,68.567L42.325,68.567L42.325,63.325L37.083,63.325L37.083,58.082L31.84,58.082ZM79.016,42.355L58.047,42.355L58.047,63.324L68.531,63.324L68.531,58.082L73.773,58.082L73.773,52.84L79.015,52.84L79.016,42.355ZM89.5,47.597L84.258,47.597L84.258,52.839L89.5,52.839L89.5,47.597ZM68.531,47.597L63.289,47.597L63.289,52.839L68.531,52.839L68.531,47.597ZM47.566,31.87L52.808,31.87L52.808,42.354L47.566,42.354L47.566,47.596L37.082,47.596L37.082,42.354L31.84,42.354L31.84,31.87L37.082,31.87L37.082,26.628L47.566,26.628L47.566,31.87ZM44.945,34.491L39.703,34.491L39.703,39.733L44.945,39.733L44.945,34.491ZM84.257,16.147L79.015,16.147L79.015,21.389L84.257,21.389L84.257,16.147Z"/>
    </g>
</svg>
