<?xml version="1.0" encoding="UTF-8" standalone="no"?>
<!DOCTYPE svg PUBLIC "-//W3C//DTD SVG 1.1//EN" "http://www.w3.org/Graphics/SVG/1.1/DTD/svg11.dtd">
<svg width="100%" height="100%" viewBox="0 0 137 137" version="1.1" xmlns="http://www.w3.org/2000/svg" xmlns:xlink="http://www.w3.org/1999/xlink" xml:space="preserve" xmlns:serif="http://www.serif.com/" style="fill-rule:evenodd;clip-rule:evenodd;stroke-linejoin:round;stroke-miterlimit:2;">
    <g transform="matrix(1.5,0,0,1.5,0,0)">
        <g transform="matrix(1,0,0,1,-4.62875,-4.62875)">
            <path d="M82.102,82.102C99.801,64.403 99.801,35.602 82.102,17.903C64.403,0.204 35.602,0.204 17.903,17.903C0.204,35.602 0.204,64.403 17.903,82.102C35.602,99.801 64.399,99.801 82.102,82.102ZM38.7,30L50.001,41.301L61.302,30L70.001,38.699L58.7,50L70.001,61.301L61.302,70L50.001,58.699L38.7,70L30.001,61.301L41.302,50L30.001,38.699L38.7,30Z" style="fill-rule:nonzero;"/>
        </g>
    </g>
</svg>
