<?xml version="1.0" encoding="UTF-8" standalone="no"?>
<!DOCTYPE svg PUBLIC "-//W3C//DTD SVG 1.1//EN" "http://www.w3.org/Graphics/SVG/1.1/DTD/svg11.dtd">
<svg width="100%" height="100%" viewBox="0 0 144 144" version="1.1" xmlns="http://www.w3.org/2000/svg" xmlns:xlink="http://www.w3.org/1999/xlink" xml:space="preserve" xmlns:serif="http://www.serif.com/" style="fill-rule:evenodd;clip-rule:evenodd;stroke-linejoin:round;stroke-miterlimit:2;">
    <g transform="matrix(1.5,0,0,1.5,0,0)">
        <g transform="matrix(1,0,0,1,-1.9813,-2.07541)">
            <path d="M72.809,22C70.207,13.359 63.598,6.5 55.059,3.582C46.52,0.66 37.094,2.039 29.747,7.277C22.399,12.516 18.024,20.976 18.001,30L18.001,30.399C11.462,31.727 6.017,36.231 3.481,42.403C0.946,48.575 1.657,55.606 5.372,61.145C9.09,66.684 15.329,70.008 22.001,70L34.001,70C36.212,70 38.001,68.211 38.001,66C38.001,63.789 36.212,62 34.001,62L22.001,62C18.817,62.024 15.754,60.785 13.489,58.551C11.219,56.321 9.93,53.278 9.907,50.094C9.852,43.469 15.184,38.051 21.809,38L22.301,38C23.481,37.981 24.602,37.473 25.399,36.602C26.172,35.699 26.508,34.5 26.309,33.328C25.176,27.969 26.289,22.379 29.395,17.867C32.496,13.352 37.313,10.305 42.723,9.441C48.133,8.578 53.661,9.973 58.016,13.297C62.367,16.621 65.168,21.586 65.762,27.031C65.922,28.125 66.531,29.105 67.446,29.734C68.356,30.363 69.489,30.586 70.571,30.351C71.699,30.113 72.848,29.996 74,30C79.715,30 85,33.05 87.855,38C90.715,42.949 90.715,49.051 87.855,54C85,58.949 79.715,62 74,62L66,62C63.789,62 62,63.789 62,66C62,68.211 63.789,70 66,70L74,70C82.574,69.789 90.383,65.015 94.488,57.484C98.59,49.952 98.363,40.804 93.891,33.484C89.422,26.163 81.383,21.789 72.809,22L72.809,22Z" style="fill-rule:nonzero;"/>
            <path d="M50,46C47.789,46 46,47.789 46,50L46,84.34L40.828,79.168L40.828,79.172C39.266,77.606 36.734,77.606 35.172,79.172C33.606,80.735 33.606,83.266 35.172,84.828L47.172,96.828C47.922,97.582 48.938,98.004 50,98.004C51.063,98.004 52.078,97.582 52.828,96.828L64.828,84.828C66.395,83.266 66.395,80.734 64.828,79.172C63.266,77.606 60.734,77.606 59.172,79.172L54,84.34L54,50C54,48.938 53.578,47.922 52.828,47.172C52.078,46.422 51.063,46 50,46L50,46Z" style="fill-rule:nonzero;"/>
        </g>
    </g>
</svg>
