<?xml version="1.0" encoding="UTF-8" standalone="no"?>
<!DOCTYPE svg PUBLIC "-//W3C//DTD SVG 1.1//EN" "http://www.w3.org/Graphics/SVG/1.1/DTD/svg11.dtd">
<svg width="100%" height="100%" viewBox="0 0 131 126" version="1.1" xmlns="http://www.w3.org/2000/svg" xmlns:xlink="http://www.w3.org/1999/xlink" xml:space="preserve" xmlns:serif="http://www.serif.com/" style="fill-rule:evenodd;clip-rule:evenodd;stroke-linejoin:round;stroke-miterlimit:2;">
    <g transform="matrix(1.5,0,0,1.5,0,0)">
        <g transform="matrix(1,0,0,1,-6.49909,-8.25546)">
            <path d="M49.105,91.414C49.257,91.414 49.41,91.398 49.562,91.367C50.832,91.117 51.656,89.883 51.406,88.613C50.484,83.957 45.968,73.074 41.515,67.886C46.488,64.562 49.398,58.582 48.527,52.964C48.363,51.898 47.496,51.085 46.421,50.988C42.628,50.648 38.757,50.964 35.066,51.917C35.469,48.261 36.188,44.417 37.102,41.14C37.395,40.086 36.926,38.972 35.965,38.453C28.852,34.578 21.406,37.304 18.004,41.828C14.738,46.172 14.188,51.508 14.301,55.215C14.422,59.164 15.348,62.203 17.137,64.504C17.605,65.105 18.164,65.66 18.777,66.191C12.977,72.641 8.761,80.402 6.574,88.816C6.262,90.023 6.949,91.27 8.145,91.641C8.379,91.715 8.613,91.746 8.844,91.746C9.801,91.746 10.695,91.152 11.043,90.211L11.488,89.004C11.594,88.719 11.637,88.43 11.633,88.145C13.82,80.902 17.699,74.278 22.856,68.739C25.68,70.055 28.723,70.75 31.704,70.75C33.559,70.75 35.375,70.465 37.102,69.949C39.727,72.129 45.567,83.238 46.805,89.523C47.032,90.645 48.012,91.414 49.106,91.414L49.105,91.414ZM24.132,64.18C22.648,63.403 21.573,62.567 20.847,61.629C19.691,60.141 19.085,57.996 18.995,55.075C18.905,52.114 19.312,47.907 21.761,44.649C23.05,42.93 25.753,41.309 28.944,41.309C29.952,41.309 31.007,41.469 32.081,41.84C31.054,46.055 30.331,50.863 30.104,55.082C30.062,55.871 30.425,56.633 31.062,57.098C31.702,57.57 32.538,57.683 33.276,57.398C36.675,56.105 40.37,55.48 43.975,55.543C43.745,59.203 41.311,62.914 37.776,64.691C33.8,66.707 28.569,66.508 24.131,64.18L24.132,64.18Z" style="fill-rule:nonzero;"/>
            <path d="M93.223,31.277C93.551,30.656 93.582,29.922 93.313,29.277C90.172,21.789 85.789,14.968 80.29,9.007C79.645,8.308 78.638,8.073 77.751,8.402L40.407,22.32C39.239,22.757 38.618,24.03 38.989,25.218C39.704,27.499 40.508,29.679 41.317,31.859C42.071,33.902 42.825,35.948 43.5,38.085C43.887,40.894 44.036,43.745 43.922,46.581C43.883,47.538 44.434,48.425 45.309,48.816C45.618,48.948 45.942,49.019 46.262,49.019C46.86,49.019 47.45,48.788 47.899,48.355L50.172,46.14C51.286,47.05 52.774,47.55 54.235,47.55C56.684,47.55 57.887,46.609 58.766,45.921C58.953,45.773 59.141,45.62 59.36,45.484C69.266,39.198 80.118,34.824 91.618,32.488C92.305,32.339 92.891,31.894 93.223,31.277L93.223,31.277ZM56.844,41.523C56.485,41.753 56.176,41.992 55.875,42.222C55.239,42.722 55.067,42.855 54.235,42.855C53.629,42.855 53.035,42.57 53.035,42.355C53.035,42.261 52.992,42.183 52.981,42.093C52.957,41.882 52.938,41.675 52.856,41.476C52.778,41.285 52.649,41.128 52.528,40.968C52.469,40.89 52.442,40.796 52.371,40.722C52.367,40.718 52.364,40.718 52.36,40.714C52.117,40.468 51.813,40.293 51.481,40.175C51.231,40.086 50.973,40.023 50.711,40.019C50.703,40.019 50.7,40.015 50.692,40.015C50.582,40.015 50.489,40.062 50.383,40.078C50.188,40.105 49.996,40.117 49.813,40.191C49.617,40.269 49.457,40.398 49.293,40.527C49.219,40.586 49.125,40.613 49.055,40.679L48.532,41.187C48.446,39.867 48.309,38.546 48.121,37.238C48.114,37.171 48.071,37.121 48.059,37.058C48.043,36.992 48.059,36.929 48.039,36.867C47.325,34.586 46.52,32.41 45.711,30.23C45.184,28.804 44.657,27.378 44.157,25.925L77.895,13.347C81.918,17.918 85.254,23 87.844,28.503C76.832,31.074 66.414,35.445 56.844,41.523L56.844,41.523Z" style="fill-rule:nonzero;"/>
            <path d="M71.555,27.586C68.922,27.277 66.278,27.137 63.629,27.102L64.168,25.348C64.543,24.113 63.848,22.801 62.61,22.422C61.379,22.051 60.063,22.746 59.684,23.981L58.703,27.191C56.746,27.289 54.789,27.438 52.848,27.688C51.563,27.852 50.656,29.027 50.824,30.313C50.977,31.492 51.985,32.356 53.145,32.356C53.246,32.356 53.348,32.348 53.446,32.336C54.707,32.172 55.977,32.063 57.246,31.965L57.086,32.492C56.711,33.731 57.41,35.039 58.645,35.418C58.875,35.484 59.102,35.52 59.328,35.52C60.332,35.52 61.262,34.871 61.571,33.859L62.211,31.754C65.149,31.738 68.09,31.902 71.012,32.242C72.266,32.359 73.461,31.469 73.614,30.184C73.762,28.902 72.844,27.738 71.555,27.586L71.555,27.586Z" style="fill-rule:nonzero;"/>
            <path d="M28.359,49.043C28.359,52.508 23.164,52.508 23.164,49.043C23.164,45.578 28.359,45.578 28.359,49.043" style="fill-rule:nonzero;"/>
        </g>
    </g>
</svg>
