<?xml version="1.0" encoding="UTF-8" standalone="no"?>
<!DOCTYPE svg PUBLIC "-//W3C//DTD SVG 1.1//EN" "http://www.w3.org/Graphics/SVG/1.1/DTD/svg11.dtd">
<svg width="100%" height="100%" viewBox="0 0 146 146" version="1.1" xmlns="http://www.w3.org/2000/svg" xmlns:xlink="http://www.w3.org/1999/xlink" xml:space="preserve" xmlns:serif="http://www.serif.com/" style="fill-rule:evenodd;clip-rule:evenodd;stroke-linejoin:round;stroke-miterlimit:2;">
    <g transform="matrix(1.5,0,0,1.5,0,0)">
        <g transform="matrix(1,0,0,1,-1.61329,-1.6126)">
            <path d="M7.66,56.047L55.64,56.047L48.953,62.734C46.589,65.098 46.589,68.926 48.949,71.289C51.312,73.652 55.144,73.652 57.503,71.289L74.515,54.277C75.652,53.144 76.289,51.605 76.289,50C76.289,48.395 75.652,46.859 74.515,45.723L57.503,28.711C55.144,26.347 51.312,26.347 48.953,28.711C46.589,31.07 46.589,34.902 48.953,37.261L55.64,43.949L7.66,43.949C4.32,43.949 1.613,46.656 1.613,49.996C1.613,53.336 4.32,56.047 7.66,56.047L7.66,56.047ZM98.387,73.442C98.379,80.055 95.751,86.395 91.071,91.071C86.395,95.751 80.055,98.38 73.442,98.387L7.661,98.387C4.321,98.387 1.614,95.68 1.614,92.341L1.614,71.169C1.614,67.829 4.321,65.122 7.661,65.122C11.001,65.122 13.712,67.829 13.712,71.169L13.712,86.29L73.442,86.29C80.535,86.282 86.282,80.536 86.29,73.442L86.29,26.559C86.282,19.465 80.536,13.719 73.442,13.711L13.712,13.711L13.712,28.832C13.712,32.171 11.001,34.878 7.661,34.878C4.321,34.878 1.614,32.171 1.614,28.831L1.614,7.659C1.614,4.32 4.321,1.613 7.661,1.613L73.442,1.613C80.055,1.62 86.395,4.253 91.071,8.929C95.747,13.605 98.379,19.945 98.387,26.558L98.387,73.442Z"/>
        </g>
    </g>
</svg>
