<?xml version="1.0" encoding="UTF-8" standalone="no"?>
<!DOCTYPE svg PUBLIC "-//W3C//DTD SVG 1.1//EN" "http://www.w3.org/Graphics/SVG/1.1/DTD/svg11.dtd">
<svg width="100%" height="100%" viewBox="0 0 184 97" version="1.1" xmlns="http://www.w3.org/2000/svg" xmlns:xlink="http://www.w3.org/1999/xlink" xml:space="preserve" xmlns:serif="http://www.serif.com/" style="fill-rule:evenodd;clip-rule:evenodd;stroke-linejoin:round;stroke-miterlimit:2;">
    <g transform="matrix(1,0,0,1,-6.79585,0)">
        <g id="cloud" transform="matrix(1,0,0,1,90.556,-4.48049)">
            <path d="M81.609,46.145C80.632,30.645 67.718,18.333 51.98,18.333C39.425,18.333 28.14,26.396 24.003,38.126C12.12,38.274 2.499,47.982 2.499,59.896C2.499,71.9 12.268,81.666 24.269,81.666L48.019,81.666L55.936,81.67L79.686,81.67C89.511,81.67 97.498,73.682 97.498,63.858C97.498,54.682 90.53,47.108 81.607,46.147L81.609,46.145Z" style="fill:rgb(101,178,253);fill-rule:nonzero;stroke:rgb(62,88,113);stroke-width:4.67px;"/>
        </g>
        <g transform="matrix(1,0,0,1,7.56373,3.77053)">
            <path d="M93.772,53.038L93.772,45.12L113.567,45.12L108.449,40.003C107.676,39.229 107.289,38.218 107.289,37.206C107.289,36.194 107.676,35.179 108.449,34.409C109.996,32.862 112.5,32.862 114.047,34.409L125.914,46.276C126.281,46.643 126.574,47.081 126.773,47.569C127.172,48.538 127.172,49.624 126.773,50.593C126.57,51.081 126.281,51.518 125.914,51.886L114.047,63.753C112.5,65.299 109.996,65.299 108.449,63.753C107.676,62.979 107.289,61.967 107.289,60.956C107.289,59.944 107.676,58.928 108.449,58.159L113.567,53.042L93.772,53.038Z"/>
        </g>
        <g transform="matrix(1,0,0,1,6.79585,0)">
            <path d="M90.188,49.371C86.747,46.848 82.5,45.352 77.915,45.352C77.895,45.352 77.876,45.356 77.852,45.356C77.794,45.231 77.735,45.102 77.673,44.977C76.985,43.625 76.134,42.395 75.142,41.297C76.47,38.824 77.044,36.02 76.774,33.16C76.415,29.328 74.587,25.867 71.622,23.41C70.294,22.309 68.321,22.492 67.224,23.824C66.122,25.152 66.306,27.125 67.638,28.223C70.415,30.524 71.274,34.289 70.028,37.477C69.36,37.156 68.669,36.875 67.954,36.641C66.314,36.106 64.548,37 64.013,38.641C63.478,40.281 64.372,42.047 66.013,42.582C71.505,44.379 74.513,50.305 72.716,55.797C72.181,57.438 73.075,59.203 74.716,59.739C75.04,59.844 75.364,59.895 75.688,59.895C77.005,59.895 78.228,59.059 78.657,57.739C79.306,55.754 79.571,53.707 79.466,51.684C82.927,52.051 86.024,53.637 88.329,56.004L88.333,56C90.997,58.735 92.466,62.324 92.466,66.148C92.466,73.648 86.763,79.839 79.466,80.613C79.481,80.328 79.489,80.039 79.489,79.75C79.489,75.871 78.13,72.086 75.661,69.102C74.564,67.77 72.591,67.586 71.263,68.684C69.931,69.782 69.743,71.754 70.845,73.082C72.392,74.954 73.239,77.321 73.239,79.75C73.239,80.875 73.06,81.961 72.732,82.977C72.732,82.981 72.728,82.989 72.728,82.993C72.681,83.137 72.63,83.278 72.579,83.418C71.064,87.458 67.122,90.227 62.767,90.227C56.981,90.231 52.283,85.532 52.283,79.754L52.283,16.629C52.283,10.852 56.982,6.152 62.76,6.152C67.51,6.152 71.674,9.355 72.889,13.937C73.26,15.343 74.553,16.312 76.014,16.261C76.014,16.261 76.279,16.254 76.365,16.254C82.143,16.254 86.842,20.953 86.842,26.731C86.842,27.938 86.639,29.125 86.233,30.254C85.737,31.637 86.276,33.18 87.522,33.957C90.62,35.887 92.467,39.215 92.467,42.852C92.467,45.262 91.655,47.535 90.19,49.371L90.188,49.371Z" style="fill:rgb(255,171,249);"/>
        </g>
        <g transform="matrix(1,0,0,1,6.79585,0)">
            <path d="M35.555,90.23C31.086,90.23 27.055,87.316 25.629,83.109L25.633,83.109C25.274,82.054 25.078,80.926 25.078,79.754C25.078,77.324 25.93,74.953 27.473,73.086C28.571,71.754 28.387,69.785 27.055,68.687C25.723,67.589 23.754,67.777 22.656,69.105C20.188,72.093 18.828,75.875 18.828,79.753C18.828,80.042 18.836,80.331 18.852,80.616C11.555,79.839 5.852,73.652 5.852,66.151C5.852,62.534 7.164,59.128 9.559,56.456L9.563,56.46C11.903,53.843 15.176,52.077 18.852,51.687C18.75,53.71 19.012,55.757 19.66,57.741C20.09,59.058 21.317,59.898 22.629,59.898C22.95,59.898 23.278,59.847 23.602,59.741C25.242,59.206 26.137,57.441 25.602,55.8C23.805,50.308 26.813,44.382 32.305,42.585C33.946,42.05 34.84,40.284 34.305,38.644C33.77,37.003 32.004,36.108 30.364,36.644C29.649,36.878 28.957,37.159 28.289,37.479C27.043,34.292 27.903,30.526 30.68,28.226C32.008,27.124 32.192,25.155 31.094,23.827C29.992,22.499 28.024,22.315 26.696,23.413C23.731,25.87 21.903,29.331 21.543,33.163C21.274,36.019 21.852,38.827 23.176,41.3C22.184,42.394 21.332,43.624 20.645,44.979C20.582,45.104 20.524,45.233 20.465,45.358C20.446,45.358 20.426,45.354 20.403,45.354C15.817,45.354 11.571,46.847 8.13,49.374C6.665,47.542 5.856,45.265 5.856,42.858C5.856,39.218 7.704,35.894 10.802,33.964C12.048,33.187 12.587,31.644 12.091,30.261C11.688,29.128 11.481,27.944 11.481,26.737C11.481,20.96 16.181,16.26 21.958,16.26C22.044,16.26 22.38,16.272 22.411,16.272C23.826,16.272 25.068,15.323 25.431,13.948C26.646,9.362 30.81,6.163 35.56,6.163C41.333,6.151 46.033,10.85 46.033,16.628L46.033,79.749C46.033,85.53 41.334,90.229 35.556,90.229L35.555,90.23Z" style="fill:rgb(255,171,249);"/>
        </g>
        <g id="brain" transform="matrix(1,0,0,1,5.95279,-1.8088)">
            <path d="M99.953,44.762C99.953,39.754 97.762,35.118 93.996,31.961C94.215,30.871 94.328,29.762 94.328,28.637C94.328,20.02 87.781,12.907 79.402,12.004C76.816,5.898 70.781,1.809 64,1.809C58.398,1.809 53.434,4.578 50.398,8.82C47.359,4.582 42.398,1.809 36.796,1.809C30.015,1.809 23.98,5.903 21.394,12.004C13.015,12.906 6.468,20.019 6.468,28.637C6.468,29.758 6.577,30.871 6.8,31.961C3.034,35.117 0.843,39.754 0.843,44.762C0.843,48.84 2.296,52.688 4.909,55.7C2.269,59.259 0.843,63.548 0.843,68.059C0.843,79.528 10.175,88.86 21.64,88.86L21.699,88.86C22.855,91.27 24.589,93.407 26.734,95.024C29.652,97.227 33.132,98.391 36.796,98.391C42.397,98.391 47.362,95.622 50.398,91.38C53.437,95.618 58.398,98.391 64,98.391C67.664,98.391 71.144,97.227 74.062,95.024C76.206,93.407 77.941,91.27 79.097,88.86C90.593,88.887 99.952,79.548 99.952,68.059C99.952,63.543 98.526,59.254 95.886,55.7C98.499,52.688 99.952,48.841 99.952,44.762L99.953,44.762ZM36.398,92.039C31.929,92.039 27.898,89.125 26.472,84.918L26.476,84.918C26.117,83.863 25.921,82.734 25.921,81.562C25.921,79.133 26.773,76.762 28.316,74.894C29.414,73.562 29.23,71.594 27.898,70.496C26.566,69.398 24.597,69.586 23.5,70.914C21.031,73.902 19.671,77.683 19.671,81.562C19.671,81.851 19.679,82.14 19.695,82.425C12.398,81.648 6.695,75.46 6.695,67.96C6.695,64.343 8.007,60.937 10.402,58.265L10.406,58.269C12.746,55.652 16.019,53.886 19.695,53.495C19.593,55.519 19.855,57.566 20.503,59.55C20.933,60.867 22.16,61.706 23.472,61.706C23.793,61.706 24.121,61.656 24.445,61.55C26.086,61.015 26.98,59.249 26.445,57.609C24.648,52.117 27.656,46.191 33.148,44.394C34.789,43.859 35.683,42.093 35.148,40.452C34.613,38.812 32.847,37.917 31.207,38.452C30.492,38.687 29.8,38.968 29.132,39.288C27.886,36.101 28.746,32.335 31.523,30.034C32.851,28.933 33.035,26.964 31.937,25.636C30.835,24.308 28.867,24.124 27.539,25.222C24.574,27.679 22.746,31.14 22.386,34.972C22.117,37.827 22.695,40.636 24.019,43.109C23.027,44.202 22.175,45.433 21.488,46.788C21.425,46.913 21.367,47.042 21.308,47.167C21.289,47.167 21.269,47.163 21.246,47.163C16.66,47.163 12.414,48.655 8.973,51.183C7.508,49.351 6.699,47.073 6.699,44.667C6.699,41.027 8.547,37.702 11.645,35.773C12.891,34.995 13.43,33.452 12.934,32.07C12.531,30.937 12.324,29.753 12.324,28.546C12.324,22.769 17.024,18.069 22.801,18.069C22.887,18.069 23.223,18.081 23.255,18.081C24.669,18.081 25.911,17.132 26.274,15.757C27.489,11.171 31.653,7.972 36.403,7.972C42.176,7.96 46.876,12.659 46.876,18.437L46.876,81.558C46.876,87.339 42.177,92.038 36.399,92.038L36.398,92.039ZM91.031,51.18C87.59,48.657 83.344,47.161 78.758,47.161C78.738,47.161 78.719,47.164 78.696,47.164C78.637,47.039 78.578,46.91 78.516,46.785C77.828,45.434 76.977,44.203 75.985,43.106C77.313,40.633 77.887,37.828 77.617,34.969C77.258,31.137 75.43,27.676 72.465,25.219C71.137,24.117 69.164,24.301 68.067,25.633C66.965,26.961 67.149,28.934 68.481,30.032C71.258,32.332 72.117,36.098 70.871,39.285C70.203,38.965 69.512,38.684 68.797,38.45C67.157,37.914 65.391,38.809 64.856,40.45C64.321,42.09 65.215,43.856 66.856,44.391C72.348,46.188 75.356,52.114 73.559,57.606C73.024,59.247 73.918,61.012 75.559,61.547C75.883,61.653 76.207,61.704 76.532,61.704C77.848,61.704 79.071,60.868 79.5,59.547C80.149,57.563 80.414,55.516 80.309,53.493C83.77,53.86 86.868,55.446 89.172,57.813L89.176,57.809C91.84,60.543 93.309,64.133 93.309,67.957C93.309,75.457 87.606,81.648 80.309,82.422C80.325,82.137 80.332,81.848 80.332,81.559C80.332,77.68 78.973,73.895 76.504,70.911C75.407,69.579 73.434,69.395 72.106,70.493C70.774,71.591 70.586,73.563 71.688,74.891C73.235,76.762 74.082,79.13 74.082,81.559C74.082,82.684 73.903,83.77 73.575,84.786C73.575,84.79 73.571,84.798 73.571,84.801C73.524,84.946 73.473,85.087 73.422,85.227C71.907,89.266 67.965,92.036 63.61,92.036C57.825,92.04 53.126,87.341 53.126,81.563L53.126,18.438C53.126,12.661 57.825,7.961 63.603,7.961C68.353,7.961 72.517,11.164 73.732,15.746C74.103,17.152 75.396,18.121 76.857,18.07C76.857,18.07 77.122,18.062 77.208,18.062C82.986,18.062 87.685,22.762 87.685,28.539C87.685,29.746 87.482,30.934 87.076,32.063C86.58,33.446 87.119,34.989 88.365,35.766C91.463,37.696 93.31,41.024 93.31,44.66C93.31,47.071 92.498,49.344 91.033,51.18L91.031,51.18Z" style="fill-rule:nonzero;"/>
        </g>
    </g>
</svg>
