<?xml version="1.0" encoding="UTF-8" standalone="no"?>
<!DOCTYPE svg PUBLIC "-//W3C//DTD SVG 1.1//EN" "http://www.w3.org/Graphics/SVG/1.1/DTD/svg11.dtd">
<svg width="100%" height="100%" viewBox="0 0 84 67" version="1.1" xmlns="http://www.w3.org/2000/svg" xmlns:xlink="http://www.w3.org/1999/xlink" xml:space="preserve" xmlns:serif="http://www.serif.com/" style="fill-rule:evenodd;clip-rule:evenodd;stroke-linejoin:round;stroke-miterlimit:2;">
    <g transform="matrix(1,0,0,1,-8.33199,-17.0913)">
        <path d="M66.668,58.332C62.563,58.344 58.723,60.367 56.395,63.75C52.379,61.695 47.622,61.695 43.606,63.75C40.196,58.781 33.727,56.949 28.223,59.395C22.715,61.84 19.739,67.867 21.137,73.727C22.539,79.59 27.922,83.613 33.942,83.305C39.958,82.992 44.899,78.434 45.688,72.457C46.782,71.242 48.344,70.546 49.981,70.546C51.618,70.546 53.176,71.242 54.27,72.457C54.911,77.324 58.337,81.367 63.032,82.793C67.727,84.218 72.825,82.765 76.059,79.078C79.297,75.39 80.075,70.148 78.051,65.676C76.028,61.207 71.575,58.336 66.668,58.332L66.668,58.332ZM33.332,75C31.648,75 30.129,73.984 29.484,72.43C28.84,70.871 29.195,69.078 30.387,67.887C31.578,66.695 33.371,66.34 34.93,66.984C36.484,67.629 37.5,69.148 37.5,70.832C37.5,71.938 37.062,73 36.281,73.781C35.5,74.562 34.437,75 33.332,75L33.332,75ZM66.664,75L66.668,75C64.98,75 63.461,73.984 62.816,72.43C62.172,70.871 62.527,69.078 63.719,67.887C64.91,66.695 66.703,66.34 68.262,66.984C69.816,67.629 70.832,69.148 70.832,70.832C70.832,71.938 70.394,73 69.613,73.781C68.832,74.562 67.773,75 66.668,75L66.664,75Z" style="fill-rule:nonzero;"/>
        <path d="M87.5,45.832L82.418,45.832L77.606,26.562C76.645,22.718 73.918,19.558 70.258,18.043C66.598,16.527 62.438,16.836 59.043,18.875L50.711,23.937L50.707,23.937C49.82,24.472 48.765,24.66 47.75,24.457L37.332,22.375C31.148,21.152 25.023,24.722 23.043,30.707L17.832,45.832L12.5,45.832C10.199,45.832 8.332,47.699 8.332,50C8.332,52.3 10.199,54.168 12.5,54.168L87.5,54.168C89.801,54.168 91.668,52.3 91.668,50C91.668,47.699 89.801,45.832 87.5,45.832L87.5,45.832ZM30.793,33.332C31.457,31.34 33.5,30.148 35.563,30.563L45.981,32.645C49.027,33.254 52.191,32.703 54.856,31.105L63.188,26.043C64.324,25.336 65.731,25.219 66.969,25.726C68.207,26.234 69.125,27.305 69.438,28.605L73.832,45.832L26.625,45.832L30.793,33.332Z" style="fill-rule:nonzero;"/>
    </g>
</svg>
