<?xml version="1.0" encoding="UTF-8" standalone="no"?>
<!DOCTYPE svg PUBLIC "-//W3C//DTD SVG 1.1//EN" "http://www.w3.org/Graphics/SVG/1.1/DTD/svg11.dtd">
<svg width="100%" height="100%" viewBox="0 0 121 132" version="1.1" xmlns="http://www.w3.org/2000/svg" xmlns:xlink="http://www.w3.org/1999/xlink" xml:space="preserve" xmlns:serif="http://www.serif.com/" style="fill-rule:evenodd;clip-rule:evenodd;stroke-linejoin:round;stroke-miterlimit:2;">
    <g transform="matrix(1.5,0,0,1.5,0,0)">
        <g transform="matrix(1,0,0,1,-9.86209,-6.2505)">
            <path d="M84.094,43.438L85.438,42.657C87.625,41.407 89.157,39.376 89.813,36.969C90.469,34.532 90.125,32 88.875,29.844L86.906,26.407C84.313,21.938 78.563,20.407 74.095,22.969L72.72,23.751C71.657,24.376 70.313,24.282 69.251,23.501C67.376,22.157 65.376,21.001 63.313,20.063C62.094,19.532 61.344,18.438 61.344,17.188L61.344,15.626C61.344,10.469 57.157,6.251 51.969,6.251L48.032,6.251C42.844,6.251 38.657,10.469 38.657,15.626L38.657,17.188C38.657,18.438 37.907,19.532 36.688,20.063C34.626,21.001 32.626,22.157 30.751,23.501C29.688,24.282 28.344,24.376 27.282,23.751L25.907,22.969C21.438,20.407 15.688,21.938 13.095,26.407L11.126,29.844C9.876,32 9.532,34.532 10.188,36.969C10.845,39.375 12.376,41.407 14.563,42.657L15.907,43.438C16.97,44.063 17.563,45.251 17.407,46.594C17.282,47.719 17.22,48.844 17.22,50C17.22,51.157 17.282,52.282 17.407,53.407C17.564,54.75 16.97,55.938 15.907,56.563L14.563,57.344C12.376,58.594 10.845,60.625 10.188,63.032C9.532,65.469 9.876,68 11.126,70.157L13.095,73.594C15.689,78.063 21.439,79.625 25.907,77.032L27.282,76.25C28.344,75.625 29.688,75.719 30.751,76.5C32.626,77.844 34.626,79 36.688,79.938C37.907,80.469 38.657,81.563 38.657,82.813L38.657,84.375C38.657,89.531 42.844,93.75 48.032,93.75L51.969,93.75C57.157,93.75 61.344,89.531 61.344,84.375L61.344,82.813C61.344,81.563 62.094,80.469 63.313,79.938C65.376,79 67.376,77.844 69.251,76.5C70.313,75.719 71.657,75.625 72.72,76.25L74.095,77.032C78.563,79.594 84.313,78.063 86.906,73.594L88.875,70.157C90.125,68 90.469,65.469 89.813,63.032C89.157,60.625 87.625,58.594 85.438,57.344L84.094,56.563C83.031,55.938 82.438,54.75 82.594,53.407C82.719,52.282 82.781,51.157 82.781,50C82.781,48.844 82.719,47.719 82.594,46.594C82.438,45.25 83.031,44.063 84.094,43.438ZM50,71.876C37.938,71.876 28.125,62.064 28.125,50.001C28.125,37.939 37.937,28.126 50,28.126C62.062,28.126 71.875,37.939 71.875,50.001C71.875,62.064 62.063,71.876 50,71.876Z" style="fill-rule:nonzero;"/>
        </g>
        <g transform="matrix(0.676173,-0.0988725,0.0988725,0.676173,1.40515,15.982)">
            <path d="M60.043,33.328C54.441,33.355 49.938,40.664 49.938,40.664C49.938,40.664 45.364,33.391 39.766,33.414C34.164,33.441 29.641,38.129 29.661,43.891C29.724,59.61 48.931,67.02 50.04,67.016C51.146,67.012 70.29,59.43 70.231,43.711C70.204,37.957 65.653,33.305 60.043,33.328L60.043,33.328Z" style="fill-rule:nonzero;"/>
        </g>
    </g>
</svg>
