<?xml version="1.0" encoding="UTF-8" standalone="no"?>
<!DOCTYPE svg PUBLIC "-//W3C//DTD SVG 1.1//EN" "http://www.w3.org/Graphics/SVG/1.1/DTD/svg11.dtd">
<svg width="100%" height="100%" viewBox="0 0 133 133" version="1.1" xmlns="http://www.w3.org/2000/svg" xmlns:xlink="http://www.w3.org/1999/xlink" xml:space="preserve" xmlns:serif="http://www.serif.com/" style="fill-rule:evenodd;clip-rule:evenodd;stroke-linejoin:round;stroke-miterlimit:2;">
    <path d="M1.621,30.819C1.621,13.799 15.414,-0 32.455,-0L100.545,-0C117.575,-0 131.379,13.793 131.379,30.819C131.379,47.839 117.586,61.632 100.545,61.632L32.455,61.632C15.425,61.632 1.621,47.839 1.621,30.819Z" style="fill:white;"/>
    <path d="M1.621,30.819C1.621,13.799 15.414,-0 32.455,-0L100.545,-0C117.575,-0 131.379,13.793 131.379,30.819C131.379,47.839 117.586,61.632 100.545,61.632L32.455,61.632C15.425,61.632 1.621,47.839 1.621,30.819ZM8.287,30.819C8.287,44.158 19.108,54.966 32.455,54.966L100.545,54.966C113.9,54.966 124.713,44.158 124.713,30.819C124.713,17.475 113.892,6.667 100.545,6.667L32.455,6.667C19.099,6.667 8.287,17.48 8.287,30.819Z"/>
    <path d="M32.439,50.281C43.188,50.281 51.901,41.568 51.901,30.819C51.901,20.069 43.189,11.352 32.439,11.352C21.69,11.352 12.977,20.069 12.977,30.819C12.977,41.568 21.69,50.281 32.439,50.281Z"/>
    <path d="M1.621,102.181C1.621,85.161 15.414,71.368 32.455,71.368L100.545,71.368C117.575,71.368 131.379,85.161 131.379,102.181C131.379,119.201 117.586,133 100.545,133L32.455,133C15.425,133 1.621,119.207 1.621,102.181Z"/>
    <path d="M100.561,121.648C111.31,121.648 120.023,112.931 120.023,102.181C120.023,91.432 111.31,82.719 100.561,82.719C89.811,82.719 81.099,91.432 81.099,102.181C81.099,112.931 89.811,121.648 100.561,121.648Z" style="fill:white;"/>
</svg>
