<?xml version="1.0" encoding="UTF-8" standalone="no"?>
<!DOCTYPE svg PUBLIC "-//W3C//DTD SVG 1.1//EN" "http://www.w3.org/Graphics/SVG/1.1/DTD/svg11.dtd">
<svg width="100%" height="100%" viewBox="0 0 143 143" version="1.1" xmlns="http://www.w3.org/2000/svg" xmlns:xlink="http://www.w3.org/1999/xlink" xml:space="preserve" xmlns:serif="http://www.serif.com/" style="fill-rule:evenodd;clip-rule:evenodd;stroke-linejoin:round;stroke-miterlimit:2;">
    <g transform="matrix(1.5,0,0,1.5,0,0)">
        <g transform="matrix(1,0,0,1,-2.39804,-2.3967)">
            <path d="M85.82,21.051C82.711,17.938 79.593,14.824 76.484,11.711C75.625,10.875 74.691,10.25 73.683,9.836C72.64,9.403 71.48,9.184 70.207,9.184L59.367,9.184C58.105,9.184 56.941,9.399 55.898,9.836L55.789,9.883C54.789,10.313 53.851,10.965 52.984,11.828L8.582,56.223C7.797,57.063 7.398,58.153 7.398,59.243C7.398,60.376 7.828,61.505 8.683,62.36L37.636,91.313C38.492,92.169 39.625,92.598 40.754,92.598C41.886,92.598 43.023,92.169 43.875,91.321L88.168,47.02C89.062,46.125 89.73,45.153 90.16,44.114C90.594,43.059 90.812,41.899 90.812,40.637L90.812,29.797C90.812,28.524 90.597,27.364 90.16,26.321C89.926,25.75 89.621,25.203 89.25,24.68C87.261,26.625 85.16,28.254 83.105,29.508C82.949,32.348 81.785,35.145 79.617,37.313C79.004,37.926 78.332,38.461 77.613,38.922C76.879,39.395 76.101,39.778 75.304,40.071C74.011,40.543 72.578,39.883 72.101,38.59C71.629,37.297 72.289,35.863 73.582,35.387C74.043,35.215 74.492,34.992 74.914,34.723C75.316,34.465 75.711,34.149 76.082,33.778C76.601,33.258 77.023,32.676 77.344,32.055C74.105,32.891 71.254,32.485 69.387,30.614C67.945,29.172 67.371,27.168 67.558,24.848C67.617,24.153 67.746,23.418 67.941,22.657C67.32,22.977 66.734,23.395 66.215,23.914C64.859,25.278 64.179,27.063 64.179,28.848C64.179,30.633 64.859,32.414 66.219,33.774C66.566,34.121 66.93,34.418 67.297,34.66C67.679,34.914 68.094,35.133 68.523,35.305C69.801,35.821 70.418,37.278 69.902,38.559C69.387,39.836 67.929,40.453 66.648,39.938C65.926,39.645 65.219,39.274 64.543,38.824C63.879,38.383 63.254,37.875 62.687,37.313C60.351,34.977 59.179,31.914 59.179,28.852C59.179,25.793 60.351,22.727 62.687,20.391C65.035,18.055 68.097,16.883 71.152,16.883C74.211,16.883 77.277,18.055 79.613,20.391C80.73,21.508 81.582,22.789 82.164,24.16C83.386,23.278 84.617,22.239 85.816,21.063L85.82,21.051ZM73.343,22.227C72.886,23.328 72.613,24.348 72.542,25.235C72.472,26.094 72.589,26.742 72.925,27.078C73.605,27.758 75.234,27.621 77.304,26.844L77.777,26.657C77.448,25.653 76.882,24.711 76.089,23.914C75.292,23.117 74.351,22.555 73.347,22.227L73.343,22.227ZM89.105,17.27C90.406,15.504 91.382,13.762 91.976,12.168C92.75,10.094 92.886,8.469 92.21,7.789C91.621,7.199 90.269,7.242 88.511,7.793C86.75,8.344 84.753,9.403 82.73,10.899L89.105,17.274L89.105,17.27ZM79.113,7.371C81.808,5.289 84.558,3.797 87.031,3.028C90.582,1.918 93.73,2.239 95.746,4.254C97.933,6.442 98.117,9.977 96.644,13.906C95.816,16.121 94.449,18.52 92.628,20.883C93.535,21.973 94.25,23.153 94.773,24.418C95.464,26.094 95.812,27.891 95.812,29.793L95.812,40.633C95.812,42.543 95.464,44.34 94.769,46.016C94.074,47.692 93.046,49.207 91.703,50.551L47.406,94.848C45.562,96.68 43.156,97.598 40.753,97.598C38.347,97.598 35.937,96.68 34.101,94.848L5.148,65.895C3.316,64.063 2.398,61.649 2.398,59.243C2.398,56.907 3.269,54.563 5.004,52.747L49.442,8.294C50.75,6.985 52.227,5.977 53.844,5.286L53.977,5.228C55.652,4.536 57.449,4.185 59.359,4.185L70.199,4.185C72.102,4.185 73.895,4.532 75.574,5.224C76.84,5.747 78.02,6.466 79.106,7.372L79.113,7.371Z" style="fill-rule:nonzero;"/>
        </g>
    </g>
</svg>
