<?xml version="1.0" encoding="UTF-8"?>
<svg width="100pt" height="100pt" version="1.1" viewBox="0 0 100 100" xmlns="http://www.w3.org/2000/svg">
 <g>
  <path d="m17.188 17.188h6.25v-12.5h-6.25c-3.4531 0-6.25 2.7969-6.25 6.25s2.7969 6.25 6.25 6.25z"/>
  <path d="m80.484 16.969 7.8125-4.6875c0.47266-0.28125 0.76562-0.79297 0.76562-1.3438s-0.29297-1.0625-0.76562-1.3438l-7.8125-4.6875c-0.24219-0.14453-0.51562-0.21875-0.79688-0.21875h-53.125v12.5h53.125c0.28125 0 0.55469-0.074219 0.79688-0.21875z"/>
  <path d="m93.75 29.688h-4.6875v-4.6875c0-0.41406-0.16406-0.8125-0.45703-1.1055s-0.69141-0.45703-1.1055-0.45703h-32.812c-1.7969 0-3.5039 0.77344-4.6875 2.125-1.1836-1.3516-2.8906-2.125-4.6875-2.125h-32.812c-0.86328 0-1.5625 0.69922-1.5625 1.5625v4.6875h-4.6875c-0.86328 0-1.5625 0.69922-1.5625 1.5625v56.25c0 0.41406 0.16406 0.8125 0.45703 1.1055s0.69141 0.45703 1.1055 0.45703h51.562v4.6875c0 0.54297 0.28516 1.043 0.74609 1.3281 0.46094 0.28125 1.0352 0.30469 1.5195 0.0625l2.4219-1.2031 2.4219 1.2031c0.21875 0.10938 0.45703 0.16797 0.70312 0.17188 0.29297 0 0.57812-0.082031 0.82812-0.23438 0.45703-0.28516 0.73438-0.78906 0.73438-1.3281v-4.6875h26.562c0.41406 0 0.8125-0.16406 1.1055-0.45703s0.45703-0.69141 0.45703-1.1055v-56.25c0-0.41406-0.16406-0.8125-0.45703-1.1055s-0.69141-0.45703-1.1055-0.45703zm-45.312 46.875c-0.003906 1.7227-1.4023 3.1211-3.125 3.125h-31.25v-53.125h31.25c1.7227 0.003906 3.1211 1.4023 3.125 3.125zm9.375 3.125h-3.125c-1.7227-0.003906-3.1211-1.4023-3.125-3.125v-46.875c0.003906-1.7227 1.4023-3.1211 3.125-3.125h3.125zm28.125 0h-18.75v-53.125h18.75z"/>
  <path d="m43.75 32.812h-25c-0.86328 0-1.5625 0.69922-1.5625 1.5625s0.69922 1.5625 1.5625 1.5625h25c0.86328 0 1.5625-0.69922 1.5625-1.5625s-0.69922-1.5625-1.5625-1.5625z"/>
  <path d="m18.75 45.312h15.625c0.86328 0 1.5625-0.69922 1.5625-1.5625s-0.69922-1.5625-1.5625-1.5625h-15.625c-0.86328 0-1.5625 0.69922-1.5625 1.5625s0.69922 1.5625 1.5625 1.5625z"/>
  <path d="m43.75 42.188h-4.6875c-0.86328 0-1.5625 0.69922-1.5625 1.5625s0.69922 1.5625 1.5625 1.5625h4.6875c0.86328 0 1.5625-0.69922 1.5625-1.5625s-0.69922-1.5625-1.5625-1.5625z"/>
  <path d="m43.75 60.938h-15.625c-0.86328 0-1.5625 0.69922-1.5625 1.5625s0.69922 1.5625 1.5625 1.5625h15.625c0.86328 0 1.5625-0.69922 1.5625-1.5625s-0.69922-1.5625-1.5625-1.5625z"/>
  <path d="m18.75 64.062h4.6875c0.86328 0 1.5625-0.69922 1.5625-1.5625s-0.69922-1.5625-1.5625-1.5625h-4.6875c-0.86328 0-1.5625 0.69922-1.5625 1.5625s0.69922 1.5625 1.5625 1.5625z"/>
  <path d="m43.75 51.562h-25c-0.86328 0-1.5625 0.69922-1.5625 1.5625s0.69922 1.5625 1.5625 1.5625h25c0.86328 0 1.5625-0.69922 1.5625-1.5625s-0.69922-1.5625-1.5625-1.5625z"/>
  <path d="m43.75 70.312h-25c-0.86328 0-1.5625 0.69922-1.5625 1.5625s0.69922 1.5625 1.5625 1.5625h25c0.86328 0 1.5625-0.69922 1.5625-1.5625s-0.69922-1.5625-1.5625-1.5625z"/>
 </g>
</svg>
