<?xml version="1.0" encoding="UTF-8" standalone="no"?>
<!DOCTYPE svg PUBLIC "-//W3C//DTD SVG 1.1//EN" "http://www.w3.org/Graphics/SVG/1.1/DTD/svg11.dtd">
<svg width="100%" height="100%" viewBox="0 0 400 400" version="1.1" xmlns="http://www.w3.org/2000/svg" xmlns:xlink="http://www.w3.org/1999/xlink" xml:space="preserve" xmlns:serif="http://www.serif.com/" style="fill-rule:evenodd;clip-rule:evenodd;stroke-linejoin:round;stroke-miterlimit:2;">
    <g transform="matrix(4.57143,0,0,4.57143,-28.5714,-28.5714)">
        <path d="M43.75,40.625C43.75,37.172 46.547,34.375 50,34.375C53.453,34.375 56.25,37.172 56.25,40.625C56.25,44.078 53.453,46.875 50,46.875C46.547,46.875 43.75,44.078 43.75,40.625Z" style="fill-rule:nonzero;"/>
        <path d="M25,6.25C19.824,6.25 15.625,10.449 15.625,15.625L15.625,81.25C15.625,88.152 21.223,93.75 28.125,93.75L81.25,93.75C82.977,93.75 84.375,92.352 84.375,90.625L84.375,15.625C84.375,10.449 80.18,6.25 75,6.25L25,6.25ZM28.125,87.5C24.672,87.5 21.875,84.703 21.875,81.25C21.875,77.797 24.672,75 28.125,75L78.125,75L78.125,87.5L28.125,87.5ZM66.141,34.113C57.192,26.129 42.809,26.129 33.86,34.113L29.172,38.293C28.505,38.886 28.126,39.734 28.126,40.625C28.126,41.515 28.505,42.363 29.172,42.957L33.86,47.136C42.809,55.121 57.192,55.121 66.141,47.136L70.828,42.957C71.496,42.363 71.875,41.515 71.875,40.625C71.875,39.734 71.496,38.886 70.828,38.293L66.141,34.113Z"/>
    </g>
</svg>
